#N canvas 882 163 947 471 12;
#X floatatom 212 101 5 0 0 0 - - -;
#X obj 212 124 mtof;
#X floatatom 212 153 5 0 0 0 - - -;
#X obj 212 208 phasor~;
#X obj 212 251 lop~ 6000;
#X obj 213 308 *~;
#X obj 212 346 throw~ out;
#X obj 791 357 catch~ out;
#X obj 791 381 dac~;
#X floatatom 294 275 5 0 0 0 - - -;
#X obj 294 247 line 0 3;
#X obj 294 187 0.1 300;
#X obj 294 155 bng 15 250 50 0 empty empty empty 17 7 0 10 -262144
-1 -1;
#X obj 373 188 delay 2000;
#X msg 373 216 0 700;
#X floatatom 440 160 5 0 0 0 - - -;
#X obj 294 98 tgl 15 0 empty empty empty 17 7 0 10 -262144 -1 -1 1
1;
#X floatatom 361 95 5 0 0 0 - - -;
#X obj 294 124 metro 10000;
#X connect 0 0 1 0;
#X connect 1 0 2 0;
#X connect 2 0 3 0;
#X connect 3 0 4 0;
#X connect 4 0 5 0;
#X connect 5 0 6 0;
#X connect 7 0 8 0;
#X connect 9 0 5 1;
#X connect 10 0 9 0;
#X connect 11 0 10 0;
#X connect 12 0 11 0;
#X connect 12 0 13 0;
#X connect 13 0 14 0;
#X connect 14 0 10 0;
#X connect 15 0 13 1;
#X connect 16 0 18 0;
#X connect 17 0 18 1;
#X connect 18 0 12 0;
